# xmcd
#
# Track frame offsets:
#	150
#	14878
#	27308
#	37160
#	48383
#	60050
#	72780
#	87845
#	98405
#	107885
#	116313
#	127543
#	147490
#	160060
#
# Disc length: 2261 seconds
#
# Revision: 2
# Processed by: cddbd v1.5.2PL0 Copyright (c) Steve Scherf et al.
# Submitted via: VUPlayer 2.49
#
DISCID=ae08d30e
DTITLE=Various Artist - Country's Greatest Hits Vol. 1
DYEAR=1989
DGENRE=Country
TTITLE0=Jeannie C. Riley - Harper Valley P.T.A.
TTITLE1=Johnny Cash - I Walk the Line
TTITLE2=Jimmy C. Newman - Alligator Man
TTITLE3=Dolly Parton - Dumb Blonde
TTITLE4=Roy Drusky - Another
TTITLE5=Anita Perras - The Tip of My Fingers
TTITLE6=Kenny Rogers - For the Good Times
TTITLE7=Patsy Cline - I Can See An Angel
TTITLE8=Charlie Rich - Lonely Weekends
TTITLE9=Jerry Lee Lewis - Save the Last Dance for Me
TTITLE10=Roy Orbison - Love Hurts
TTITLE11=Gary Fjellgaard - Cowboy in Your Hart
TTITLE12=Willy Nelson - Any Old Arms Won't Do
TTITLE13=Dave Dudley - Truck Drivin' Son-Of-A-Gun
EXTD=
EXTT0=
EXTT1=
EXTT2=
EXTT3=
EXTT4=
EXTT5=
EXTT6=
EXTT7=
EXTT8=
EXTT9=
EXTT10=
EXTT11=
EXTT12=
EXTT13=
PLAYORDER=
